/* XPM */
static char * evdaemon_admin_xpm[] = {
"32 32 135 2",
"  	c #FFFFFF",
". 	c #165EFF",
"+ 	c #E8E8E8",
"@ 	c #757575",
"# 	c #303030",
"$ 	c #A2A2A2",
"% 	c #2B6CFF",
"& 	c #C5C5C5",
"* 	c #535353",
"= 	c #C0C0C0",
"- 	c #191919",
"; 	c #343434",
"> 	c #818181",
", 	c #5E5E5E",
"' 	c #272727",
") 	c #969696",
"! 	c #2D2D2D",
"~ 	c #282828",
"{ 	c #A4A4A4",
"] 	c #2E2E2E",
"^ 	c #676767",
"/ 	c #646464",
"( 	c #080808",
"_ 	c #494949",
": 	c #1F1F1F",
"< 	c #5A5A5A",
"[ 	c #484848",
"} 	c #020202",
"| 	c #121212",
"1 	c #474747",
"2 	c #4C4C4C",
"3 	c #4B4B4B",
"4 	c #090909",
"5 	c #222222",
"6 	c #D2D2D2",
"7 	c #2A2A2A",
"8 	c #424242",
"9 	c #101010",
"0 	c #232323",
"a 	c #D4D4D4",
"b 	c #040404",
"c 	c #030303",
"d 	c #202020",
"e 	c #404040",
"f 	c #333333",
"g 	c #1E1E1E",
"h 	c #262626",
"i 	c #050505",
"j 	c #939393",
"k 	c #0B0B0B",
"l 	c #070707",
"m 	c #242424",
"n 	c #292929",
"o 	c #0A0A0A",
"p 	c #0C0C0C",
"q 	c #686868",
"r 	c #353535",
"s 	c #444444",
"t 	c #0D0D0D",
"u 	c #161616",
"v 	c #181818",
"w 	c #1D1D1D",
"x 	c #131313",
"y 	c #171717",
"z 	c #332525",
"A 	c #0E0E0E",
"B 	c #8C0D0D",
"C 	c #991212",
"D 	c #BE1414",
"E 	c #E11414",
"F 	c #E21414",
"G 	c #D41414",
"H 	c #A91515",
"I 	c #B21313",
"J 	c #911313",
"K 	c #7D0F0F",
"L 	c #911010",
"M 	c #CA1212",
"N 	c #DE1313",
"O 	c #F11414",
"P 	c #E31414",
"Q 	c #8C1616",
"R 	c #C31515",
"S 	c #A31616",
"T 	c #A02F2F",
"U 	c #4A4A4A",
"V 	c #A1A1A1",
"W 	c #1C1C1C",
"X 	c #AD2020",
"Y 	c #FF1414",
"Z 	c #F61414",
"` 	c #FD1414",
" .	c #A11B1B",
"..	c #771E1E",
"+.	c #A01C1C",
"@.	c #B0B0B0",
"#.	c #BA1A1A",
"$.	c #B21F1F",
"%.	c #A61919",
"&.	c #FE1414",
"*.	c #542E2E",
"=.	c #951616",
"-.	c #EB1515",
";.	c #461919",
">.	c #707070",
",.	c #8C8C8C",
"'.	c #1C1A1A",
").	c #DD1818",
"!.	c #9F1818",
"~.	c #522929",
"{.	c #C61919",
"].	c #371C1C",
"^.	c #252525",
"/.	c #4B2323",
"(.	c #BF1A1A",
"_.	c #D81919",
":.	c #8D2222",
"<.	c #632121",
"[.	c #1A1919",
"}.	c #232121",
"|.	c #4D3030",
"1.	c #C71616",
"2.	c #C61515",
"3.	c #4A2D2D",
"4.	c #2E2323",
"5.	c #B4B4B4",
"6.	c #6F6F6F",
"7.	c #3C3030",
"8.	c #543636",
"9.	c #622020",
"0.	c #512525",
"a.	c #9A9A9A",
"b.	c #363636",
"c.	c #3B3B3B",
"d.	c #595959",
"                                                                ",
"                                                                ",
"                                .                               ",
"    + @ # $     % %           % . .             %   & * * &     ",
"    = - - ;       % %       % %   % %         % .   > - - ,     ",
"    = - - '         % %   % %       % %     % %     ) - - !     ",
"    + - - - +         % . %           % % % %       = - - '     ",
"      ~ - - {           .     & * * &   . .         + - - -     ",
"      ] - - ^                 / ( ( _                 - - -     ",
"      : - - <                 [ } } |                 - - - +   ",
"      1 - - 2                 3 } } 4               + 5 - - 6   ",
"      { - - 7                 8 } } 9               > - - 0 +   ",
"      a - - -                 ! b c d               e - - f     ",
"      6 - - g &       + 6 +   h i i h               e - - *     ",
"      j k b } l - - ' m - m n o c c p - - - - - - - b } b q     ",
"      ! 4 } } b - - - - - - - l b c 9 - - - - - - - } } } r     ",
"      s | i c t | u v - w - - x 4 o y - - - - - - z w } A 2     ",
"      < - - ] B C D E F G H I J K L M N O P Q R S T U - - U     ",
"      V W - - X Y Y Y Y Y Y Y Z Y ` Y Y Y Y Y Y Y  .# - - e     ",
"      = - - m ..Y Y Y Y Y Y Y Y Y Y Y Y Y Y Y Y Y +.: - - >     ",
"      @.- - n #.Y Y Y Y Y Y Y Y Y Y Y Y Y Y Y Y Y $.- - ' +     ",
"      = - - m %.Y Y Y Y Y Y Y Y Y Y Y Y Y Y Y Y &.*.- - 2       ",
"      + - - - =.Y Y Y Y Y Y Y Y Y Y Y Y Y Y Y Y -.;.- - >.      ",
"        ,.- - '.).Y Y Y Y Y Y Y Y Y Y Y Y Y Y Y !.- - - &       ",
"          * - - ~.{.Y Y Y Y Y Y Y Y Y Y Y Y Y Y ].- - ,.        ",
"          & ^.- - /.(._.Y Y Y Y Y Y Y Y Y Y :.<.[.- #           ",
"            $ - - - }.|.1.Y Y Y Y Y Y Y 2.3.4.- - # 5.          ",
"              6.- - - - w m n 7.8.9.0.s - - - d * &             ",
"                a.b.W - - - - - - - - - - - - s                 ",
"                    a.c.0 - - - - - - - - 7 , &                 ",
"                        + = @.) ^ d.d.6.&                       ",
"                                                                "};
