/* XPM */
static char * evdaemon_admin_xpm[] = {
"32 32 42 1",
" 	c None",
".	c #000000",
"+	c #145CFF",
"@	c #AD0D0D",
"#	c #850A0A",
"$	c #360404",
"%	c #0C0000",
"&	c #3C0404",
"*	c #880A0A",
"=	c #740909",
"-	c #200202",
";	c #8A0A0A",
">	c #6D0808",
",	c #C30F0F",
"'	c #FA1313",
")	c #FF1414",
"!	c #600707",
"~	c #400505",
"{	c #E41111",
"]	c #CC1010",
"^	c #9E0C0C",
"/	c #F71313",
"(	c #5C0606",
"_	c #730909",
":	c #AE0D0D",
"<	c #FE1313",
"[	c #F11212",
"}	c #330404",
"|	c #CF0F0F",
"1	c #FC1313",
"2	c #E21111",
"3	c #4D0606",
"4	c #800A0A",
"5	c #AF0D0D",
"6	c #D31010",
"7	c #810A0A",
"8	c #F51313",
"9	c #A70D0D",
"0	c #5F0707",
"a	c #550606",
"b	c #240202",
"c	c #0D0101",
"  .                          .  ",
" ...  ++       +++       +  ... ",
"..... +++     +++++     ++ .....",
".....  +++   +++++++   ++  .... ",
".....    +++++    +++++++  .... ",
".....     +++      +++++   .... ",
".....      ++  ..   +++    .... ",
" ....         ....         .... ",
" ....         ....        ....  ",
"  ....        ....        ..... ",
" .....         ....       ....  ",
"  ....        ....        ....  ",
"   ....  ..   ....       ....   ",
"   ................. .......    ",
"  ............................. ",
" ...............................",
" .....  @#$%...........&*=- ....",
" ....-             ;>>,'))  ....",
"  ...!)))))))    ))   )))) ~... ",
"  ...!)))))))))))))))))))){-... ",
"   ..-])))))))))))))))))))=...  ",
"    ..-^/)))))))))))))))) ....  ",
"    ....())))))))))))))))_....  ",
"     ....:<)))))))))))))[}...   ",
"      ...-|)))))))))))123....   ",
"      ....-45 )))))) 6=-....    ",
"       ......%78))290-.....     ",
"        .......}_abc......      ",
"          ...............       ",
"            ...........         ",
"                ....            ",
"                                "};
